{"title":"Trancers 6 (2002) DVDRip ","uid":8056708,"size":732399616,"categoryP":"video","categoryS":"movies","magnet":"?xt=urn:btih:d42cde32581028ebcb96f81a6b4bc788ddada1e2&amp;dn=Trancers+6+%282002%29+DVDRip+&amp;tr=udp%3A%2F%2Ftracker.openbittorrent.com%3A80&amp;tr=udp%3A%2F%2Fopen.demonii.com%3A1337&amp;tr=udp%3A%2F%2Ftracker.coppersurfer.tk%3A6969&amp;tr=udp%3A%2F%2Fexodus.desync.com%3A6969","seeders":0,"leechers":7,"uploader":"yfjfrj","files":-1,"time":1358984384,"description":"Trancer hunter Jack Deth travels through time and awakens in the body of his daughter. And now he must save himself (her body) and the world from a new a deadly breed of Trancers. \n\nDirector: Jay Woelfel\nWriters: C. Courtney Joyner, Danny Bilson \nStars: Zette Sullivan, Jennifer Capo and Robert Donavan\n\nPlot:\nTrancer hunter Jack Deth travels through time and awakens in the body of his daughter. And now he must save himself (her body) and the world from a new a deadly breed of Trancers.\n\nMediaInfo\nGeneral\nComplete name                            : D:Trancers 6 [2002]DVDRip XviD-EPiSODETrancers_6.avi\nFormat                                   : AVI\nFormat/Info                              : Audio Video Interleave\nFile size                                : 698 MiB\nDuration                                 : 1h 20mn\nOverall bit rate mode                    : Variable\nOverall bit rate                         : 1 220 Kbps\nWriting application                      : Nandub v1.0rc2\nWriting library                          : Nandub build 1852/release\n\nVideo\nID                                       : 0\nFormat                                   : MPEG-4 Visual\nFormat profile                           : Advanced Simple@L5\nFormat settings, BVOP                    : 2\nFormat settings, QPel                    : No\nFormat settings, GMC                     : No warppoints\nFormat settings, Matrix                  : Default (H.263)\nMuxing mode                              : Packed bitstream\nCodec ID                                 : XVID\nCodec ID/Hint                            : XviD\nDuration                                 : 1h 20mn\nBit rate                                 : 1 076 Kbps\nWidth                                    : 576 pixels\nHeight                                   : 432 pixels\nDisplay aspect ratio                     : 4:3\nFrame rate                               : 23.976 fps\nColor space                              : YUV\nChroma subsampling                       : 4:2:0\nBit depth                                : 8 bits\nScan type                                : Progressive\nCompression mode                         : Lossy\nBits/(Pixel*Frame)                       : 0.180\nStream size                              : 616 MiB (88%)\nWriting library                          : XviD 1.2.1 (UTC 2008-12-04)\n\nAudio\nID                                       : 1\nFormat                                   : MPEG Audio\nFormat version                           : Version 1\nFormat profile                           : Layer 3\nMode                                     : Joint stereo\nMode extension                           : MS Stereo\nCodec ID                                 : 55\nCodec ID/Hint                            : MP3\nDuration                                 : 1h 20mn\nBit rate mode                            : Variable\nBit rate                                 : 131 Kbps\nNominal bit rate                         : 138 Kbps\nChannel(s)                               : 2 channels\nSampling rate                            : 48.0 KHz\nCompression mode                         : Lossy\nStream size                              : 74.9 MiB (11%)\nAlignment                                : Aligned on interleaves\nInterleave, duration                     : 24 ms (0.58 video frame)\nInterleave, preload duration             : 135 ms\nWriting library                          : LAME3.98r\nEncoding settings                        : -m j -V 4 -q 3 -lowpass 17 --abr 138\n\nScreenshots: &lt;a href=&quot;\nhttp://img51.imageshack.us/img51/3487/grabcq.png&quot; rel=&quot;nofollow&quot; target=&quot;_NEW&quot;&gt;\nhttp://img51.imageshack.us/img51/3487/grabcq.png&lt;/a&gt; &lt;a href=&quot;\nhttp://img268.imageshack.us/img268/9206/grab2b.png&quot; rel=&quot;nofollow&quot; target=&quot;_NEW&quot;&gt;\nhttp://img268.imageshack.us/img268/9206/grab2b.png&lt;/a&gt; &lt;a href=&quot;\nhttp://img163.imageshack.us/img163/2314/grab3v.png&quot; rel=&quot;nofollow&quot; target=&quot;_NEW&quot;&gt;\nhttp://img163.imageshack.us/img163/2314/grab3v.png&lt;/a&gt; &lt;a href=&quot;\nhttp://img822.imageshack.us/img822/214/grab4xo.png&quot; rel=&quot;nofollow&quot; target=&quot;_NEW&quot;&gt;\nhttp://img822.imageshack.us/img822/214/grab4xo.png&lt;/a&gt; &lt;a href=&quot;\nhttp://img687.imageshack.us/img687/278/grab5d.png&quot; rel=&quot;nofollow&quot; target=&quot;_NEW&quot;&gt;\nhttp://img687.imageshack.us/img687/278/grab5d.png&lt;/a&gt; &lt;a href=&quot;\nhttp://img585.imageshack.us/img585/9749/grab6jb.png&quot; rel=&quot;nofollow&quot; target=&quot;_NEW&quot;&gt;\nhttp://img585.imageshack.us/img585/9749/grab6jb.png&lt;/a&gt; &lt;a href=&quot;\nhttp://img812.imageshack.us/img812/7056/grab7y.png&quot; rel=&quot;nofollow&quot; target=&quot;_NEW&quot;&gt;\nhttp://img812.imageshack.us/img812/7056/grab7y.png&lt;/a&gt; &lt;a href=&quot;\nhttp://img9.imageshack.us/img9/2240/grab8ns.png&quot; rel=&quot;nofollow&quot; target=&quot;_NEW&quot;&gt;\nhttp://img9.imageshack.us/img9/2240/grab8ns.png&lt;/a&gt; &lt;a href=&quot;\nhttp://img836.imageshack.us/img836/3020/grab9l.png&quot; rel=&quot;nofollow&quot; target=&quot;_NEW&quot;&gt;\nhttp://img836.imageshack.us/img836/3020/grab9l.png&lt;/a&gt;\n","torrent":{"xt":"urn:btih:d42cde32581028ebcb96f81a6b4bc788ddada1e2","amp;dn":"Trancers+6+%282002%29+DVDRip+","amp;tr":["udp%3A%2F%2Ftracker.openbittorrent.com%3A80","udp%3A%2F%2Fopen.demonii.com%3A1337","udp%3A%2F%2Ftracker.coppersurfer.tk%3A6969","udp%3A%2F%2Fexodus.desync.com%3A6969"],"infoHash":"d42cde32581028ebcb96f81a6b4bc788ddada1e2","infoHashBuffer":{"type":"Buffer","data":[212,44,222,50,88,16,40,235,203,150,248,26,107,75,199,136,221,173,161,226]},"announce":[],"urlList":[]}}